<svg width="505" height="100" viewBox="0 0 505 100" fill="none" xmlns="http://www.w3.org/2000/svg">
<path d="M36.8055 63.8781C36.8055 68.1244 35.2392 71.489 32.1066 73.9719C28.9973 76.4547 24.8554 77.6961 19.6809 77.6961C13.4622 77.6961 8.69375 77.0116 5.37558 75.6426V72.0923C9.04182 73.647 13.7174 74.4244 19.4024 74.4244C23.5792 74.4244 26.8857 73.473 29.3222 71.5703C31.7818 69.6443 33.0116 67.1267 33.0116 64.0173C33.0116 62.0914 32.6055 60.5019 31.7934 59.2489C30.9812 57.9727 29.6586 56.8125 27.8255 55.7683C25.9924 54.7241 23.3007 53.5987 19.7505 52.3921C14.5528 50.6054 10.9561 48.6795 8.9606 46.6143C6.98826 44.5259 6.00208 41.753 6.00208 38.2956C6.00208 34.4902 7.48714 31.3924 10.4573 29.0024C13.4506 26.5892 17.2909 25.3826 21.9781 25.3826C26.7581 25.3826 31.2481 26.2875 35.448 28.0975L34.1602 31.1604C29.9371 29.3969 25.8996 28.5151 22.0477 28.5151C18.2886 28.5151 15.2953 29.3853 13.0677 31.1256C10.8401 32.8659 9.72634 35.2327 9.72634 38.226C9.72634 40.1056 10.0628 41.6486 10.7357 42.8552C11.4318 44.0618 12.5572 45.1524 14.1119 46.127C15.6666 47.0784 18.335 48.227 22.1173 49.5728C26.0852 50.9418 29.0669 52.2761 31.0625 53.5755C33.058 54.8517 34.5083 56.3136 35.4132 57.9611C36.3414 59.5854 36.8055 61.5577 36.8055 63.8781ZM93.957 77V52.1833C93.957 48.4938 93.2377 45.8022 91.7991 44.1083C90.3604 42.4144 88.156 41.5674 85.1859 41.5674C81.3108 41.5674 78.4451 42.6348 76.5888 44.7696C74.7325 46.9043 73.8043 50.2573 73.8043 54.8285V77H70.2889V51.1391C70.2889 44.758 67.3652 41.5674 61.5178 41.5674C57.5499 41.5674 54.661 42.7276 52.8511 45.048C51.0412 47.3452 50.1362 51.0347 50.1362 56.1164V77H46.6904V39.1658H49.5445L50.2754 44.3519H50.4843C51.5284 42.4724 53.0135 41.0221 54.9394 40.0011C56.8654 38.957 58.9885 38.4349 61.3089 38.4349C67.2724 38.4349 71.1011 40.6741 72.795 45.1524H72.9342C74.164 42.9945 75.8115 41.3354 77.8766 40.1752C79.965 39.015 82.3318 38.4349 84.9771 38.4349C89.1074 38.4349 92.2051 39.5371 94.2703 41.7414C96.3355 43.9458 97.368 47.4496 97.368 52.2529V77H93.957ZM132.592 77L131.722 71.0134H131.443C129.54 73.4498 127.58 75.1785 125.561 76.1995C123.565 77.1972 121.199 77.6961 118.461 77.6961C114.748 77.6961 111.859 76.7448 109.794 74.842C107.729 72.9393 106.696 70.3056 106.696 66.941C106.696 63.2516 108.228 60.3859 111.29 58.3439C114.377 56.302 118.832 55.223 124.656 55.107L131.861 54.8981V52.3921C131.861 48.7955 131.13 46.0806 129.668 44.2475C128.206 42.4144 125.851 41.4978 122.602 41.4978C119.099 41.4978 115.467 42.4724 111.708 44.4215L110.42 41.4282C114.574 39.479 118.681 38.5045 122.742 38.5045C126.895 38.5045 129.993 39.5835 132.035 41.7414C134.1 43.8994 135.133 47.264 135.133 51.8352V77H132.592ZM118.669 74.5636C122.707 74.5636 125.886 73.415 128.206 71.1178C130.55 68.7974 131.722 65.5836 131.722 61.4765V57.7522L125.108 58.0307C119.795 58.2859 116.001 59.1213 113.727 60.5367C111.476 61.929 110.351 64.1101 110.351 67.0803C110.351 69.4471 111.07 71.2918 112.509 72.6144C113.971 73.9139 116.024 74.5636 118.669 74.5636ZM162.316 38.4349C163.917 38.4349 165.634 38.5973 167.467 38.9221L166.806 42.2287C165.228 41.8343 163.592 41.637 161.899 41.637C158.673 41.637 156.028 43.0061 153.963 45.7441C151.898 48.4822 150.865 51.9396 150.865 56.1164V77H147.419V39.1658H150.343L150.691 45.9878H150.935C152.489 43.2033 154.148 41.2542 155.912 40.1404C157.675 39.0034 159.81 38.4349 162.316 38.4349ZM185.184 74.6332C187.365 74.6332 189.268 74.4476 190.892 74.0763V76.8608C189.221 77.4177 187.295 77.6961 185.114 77.6961C181.773 77.6961 179.302 76.8028 177.7 75.0161C176.123 73.2293 175.334 70.4217 175.334 66.593V42.1591H169.73V40.1404L175.334 38.5741L177.074 30.0118H178.849V39.1658H189.952V42.1591H178.849V66.1057C178.849 69.0062 179.36 71.1526 180.381 72.5448C181.402 73.9371 183.003 74.6332 185.184 74.6332ZM231.72 77H228.134V29.4549H211.602V26.1135H248.252V29.4549H231.72V77ZM269.867 38.4349C271.468 38.4349 273.185 38.5973 275.018 38.9221L274.357 42.2287C272.779 41.8343 271.143 41.637 269.449 41.637C266.224 41.637 263.579 43.0061 261.514 45.7441C259.448 48.4822 258.416 51.9396 258.416 56.1164V77H254.97V39.1658H257.894L258.242 45.9878H258.485C260.04 43.2033 261.699 41.2542 263.463 40.1404C265.226 39.0034 267.361 38.4349 269.867 38.4349ZM305.717 77L304.847 71.0134H304.569C302.666 73.4498 300.705 75.1785 298.686 76.1995C296.691 77.1972 294.324 77.6961 291.586 77.6961C287.873 77.6961 284.984 76.7448 282.919 74.842C280.854 72.9393 279.822 70.3056 279.822 66.941C279.822 63.2516 281.353 60.3859 284.416 58.3439C287.502 56.302 291.957 55.223 297.781 55.107L304.986 54.8981V52.3921C304.986 48.7955 304.255 46.0806 302.794 44.2475C301.332 42.4144 298.976 41.4978 295.728 41.4978C292.224 41.4978 288.593 42.4724 284.834 44.4215L283.546 41.4282C287.699 39.479 291.806 38.5045 295.867 38.5045C300.021 38.5045 303.118 39.5835 305.16 41.7414C307.226 43.8994 308.258 47.264 308.258 51.8352V77H305.717ZM291.795 74.5636C295.832 74.5636 299.011 73.415 301.332 71.1178C303.675 68.7974 304.847 65.5836 304.847 61.4765V57.7522L298.234 58.0307C292.92 58.2859 289.126 59.1213 286.852 60.5367C284.602 61.929 283.476 64.1101 283.476 67.0803C283.476 69.4471 284.195 71.2918 285.634 72.6144C287.096 73.9139 289.15 74.5636 291.795 74.5636ZM335.65 77.6961C330.244 77.6961 326.009 75.9906 322.946 72.5796C319.883 69.1686 318.352 64.4118 318.352 58.3091C318.352 52.044 319.941 47.1712 323.12 43.6906C326.299 40.1868 330.65 38.4349 336.173 38.4349C339.444 38.4349 342.577 39.0034 345.57 40.1404L344.63 43.2033C341.359 42.1127 338.516 41.5674 336.103 41.5674C331.462 41.5674 327.947 43.0061 325.557 45.8834C323.167 48.7375 321.972 52.8562 321.972 58.2395C321.972 63.3444 323.167 67.3471 325.557 70.2476C327.947 73.1249 331.288 74.5636 335.581 74.5636C339.015 74.5636 342.206 73.9487 345.153 72.7189V75.921C342.739 77.1044 339.572 77.6961 335.65 77.6961ZM357.822 60.3975L377.139 39.1658H381.316L366.419 55.3158L382.604 77H378.462L364.087 57.8915L357.892 63.53V77H354.446V22.8417H357.892V49.9905L357.648 60.3975H357.822Z" transform="translate(119.849)" fill="#011E33"/>
<g clip-path="url(#clip0)">
<circle opacity="0.1" cx="47.5219" cy="47.5219" r="47.5219" transform="translate(0 3.96002)" fill="#00AEEE"/>
<circle opacity="0.15" cx="38.0175" cy="38.0175" r="38.0175" transform="translate(9.50436 13.4645)" fill="#00AEEE"/>
<circle opacity="0.2" cx="28.5131" cy="28.5131" r="28.5131" transform="translate(19.0088 22.9688)" fill="#00AEEE"/>
<circle opacity="0.3" cx="19.0088" cy="19.0088" r="19.0088" transform="translate(28.5131 32.4732)" fill="#00AEEE"/>
<circle cx="9.50438" cy="9.50438" r="9.50438" transform="translate(38.0175 41.9775)" fill="#00AEEE"/>
</g>
<defs>
<clipPath id="clip0">
<rect width="95.0438" height="95.0438" fill="white" transform="translate(0 3.96002)"/>
</clipPath>
</defs>
</svg>
