<svg width="110" height="110" viewBox="0 0 110 110" fill="none" xmlns="http://www.w3.org/2000/svg">
<g clip-path="url(#clip0)">
<path fill-rule="evenodd" clip-rule="evenodd" d="M14.3726 55C16.7479 61.3877 20.8102 67.0218 26.1422 71.2815C29.1047 73.7042 31.4887 76.7673 33.1172 80.2443C34.7464 83.7231 35.5776 87.5267 35.5486 91.3734L35.5486 91.3809V110.002H37.5486V91.3846C37.5792 87.2414 36.6837 83.1441 34.9284 79.396C33.1724 75.6468 30.6008 72.3429 27.4037 69.7295L27.4037 69.7294L27.3948 69.7224C22.5404 65.8455 18.7961 60.7641 16.5147 55H14.3726ZM59.0001 7.55584C59.9868 7.83891 60.9626 8.16536 61.9246 8.5347C66.3845 10.247 70.4566 12.8465 73.8979 16.1784C77.3392 19.5103 80.0792 23.5065 81.9541 27.9286C83.8277 32.3476 84.7989 37.1014 84.8097 41.9067C84.7976 42.6087 84.9856 43.3001 85.3522 43.8989L85.3599 43.9115L85.3681 43.924L96.0588 60.2725C96.2074 60.5114 96.2896 60.7867 96.2964 61.0696C96.2931 61.3799 96.179 61.6778 95.9764 61.909C95.7717 62.1425 95.491 62.2918 95.1872 62.3311L90.0369 62.9967L90.0316 62.9974C89.1499 63.1161 88.3448 63.5595 87.7709 64.2397L88.5352 64.8845L87.7709 64.2397C87.2006 64.9157 86.8985 65.7781 86.9204 66.6623V82.7402C86.9204 83.499 86.621 84.2254 86.0902 84.7598C85.5597 85.294 84.8416 85.5929 84.0943 85.5929H77.7557L64.156 85.5929L64.1526 85.5929C62.2735 85.5993 60.4117 85.2295 58.6755 84.5048C56.9392 83.7801 55.3629 82.7148 54.0384 81.3706L52.6137 82.7743C54.1243 84.3074 55.9229 85.5231 57.9051 86.3505C59.8866 87.1776 62.0118 87.5999 64.1572 87.5929L64.1595 87.5929L76.7557 87.5929V110H78.7557V87.5929H84.0943C85.3765 87.5929 86.6048 87.0799 87.5093 86.1691C88.4136 85.2586 88.9204 84.025 88.9204 82.7402V66.6489V66.6343L88.92 66.6198C88.9083 66.2205 89.0441 65.832 89.2995 65.5294C89.5541 65.2276 89.9093 65.0326 90.2959 64.9799L90.2985 64.9795L95.4436 64.3145C96.2325 64.2126 96.9561 63.8254 97.4804 63.2273C98.0046 62.6292 98.294 61.8609 98.2965 61.0656L98.2965 61.0554L98.2963 61.0452C98.285 60.3919 98.0953 59.7539 97.7476 59.201L97.7429 59.1935L97.738 59.1861L87.0511 42.8433C86.8869 42.5705 86.8029 42.2556 86.8095 41.9354L86.8097 41.9241L86.8097 41.9129C86.7997 36.8375 85.7746 31.8161 83.7954 27.1479C81.8163 22.4797 78.9234 18.2603 75.2891 14.7415C71.6548 11.2227 67.3534 8.47671 62.6415 6.66759C61.4462 6.20869 60.2308 5.81247 59.0001 5.47974V7.55584Z" fill="#232822"/>
<path fill-rule="evenodd" clip-rule="evenodd" d="M27 7H29V17H35V7H37V17H43V7H45V17H49V21H59V23H49V29H59V31H49V37H59V39H49V43H45V53H43V43H37V53H35V43H29V53H27V43H23V39H13V37H23V31H13V29H23V23H13V21H23V17H27V7ZM27 21H45V39H27V21Z" fill="url(#paint0_linear)"/>
</g>
<defs>
<linearGradient id="paint0_linear" x1="13" y1="7" x2="64.0715" y2="13.5686" gradientUnits="userSpaceOnUse">
<stop stop-color="#FF9900"/>
<stop offset="1" stop-color="#DD2C00"/>
</linearGradient>
<clipPath id="clip0">
<rect width="110" height="110" fill="white"/>
</clipPath>
</defs>
</svg>
