<svg width="110" height="110" viewBox="0 0 110 110" fill="none" xmlns="http://www.w3.org/2000/svg">
<g clip-path="url(#clip0)">
<path d="M77.7556 86.5929V110M53.3259 82.0724C54.7435 83.5111 56.4309 84.6516 58.2902 85.4277C60.1494 86.2037 62.1433 86.5998 64.1559 86.5929H84.0942C85.1089 86.5929 86.0821 86.187 86.7997 85.4645C87.5172 84.742 87.9203 83.762 87.9203 82.7402V66.6489C87.9015 66.0045 88.1205 65.3759 88.5351 64.8845C88.9496 64.3932 89.5303 64.0739 90.1649 63.9885L95.3153 63.3228C95.8616 63.2522 96.3638 62.984 96.7283 62.5681C97.0928 62.1523 97.2947 61.6172 97.2964 61.0626C97.2882 60.5914 97.1514 60.1316 96.901 59.7334L86.2049 43.3767C85.9362 42.9379 85.799 42.4303 85.8096 41.9148C85.7998 36.9728 84.8017 32.0834 82.8747 27.5383C80.9476 22.9931 78.1312 18.8853 74.5934 15.46C71.0556 12.0346 66.8688 9.36188 62.2829 7.60116C57.697 5.84044 52.806 5.02782 47.9014 5.21179C40.4829 5.51436 33.3341 8.09564 27.4151 12.6089C21.4961 17.1222 17.0905 23.3513 14.79 30.4594C12.4896 37.5676 12.4045 45.2145 14.5461 52.3728C16.6878 59.5311 20.9536 65.858 26.7707 70.5038C29.8515 73.0221 32.33 76.2062 34.0226 79.8202C35.7153 83.4341 36.5785 87.3853 36.5485 91.3809V110.002" stroke="url(#paint0_linear)" stroke-width="2"/>
<path d="M46.6378 56.9424V56.9551L46.6381 56.9678C46.6572 57.7207 46.5259 58.4697 46.2522 59.1702C45.9785 59.8706 45.5679 60.5081 45.0453 61.045C44.5228 61.5819 43.8988 62.0072 43.2107 62.2961C42.5228 62.5848 41.7845 62.7314 41.0397 62.7274C39.8149 62.7177 38.6261 62.3047 37.6548 61.5503C36.683 60.7956 35.9821 59.7403 35.6606 58.5448L35.6571 58.5318L35.6533 58.5189L34.8604 55.8584L34.6592 55.1834L33.9559 55.1455C30.499 54.9591 27.2438 53.4427 24.8635 50.9074C22.4829 48.372 21.1595 45.0112 21.1685 41.5193L21.1685 41.5121L21.1684 41.5049C21.1463 39.6439 21.5179 37.7998 22.2584 36.0952C22.9989 34.3906 24.0911 32.8649 25.462 31.6192L25.8006 31.3116L25.7893 30.8544C25.7687 30.0226 25.8093 29.1905 25.9109 28.3649C26.4345 25.3353 27.9358 22.5651 30.1809 20.4835C32.4267 18.4012 35.291 17.1244 38.329 16.8494C39.9541 16.7702 41.5818 16.9396 43.1567 17.3519L43.6054 17.4694L43.9849 17.2027C46.2115 15.638 48.8695 14.8183 51.5829 14.8588L51.5946 14.859L51.6063 14.8589C53.8226 14.8401 56.0081 15.3849 57.9603 16.4433C59.9126 17.5016 61.5688 19.0395 62.7749 20.9151L63.04 21.3273L63.5282 21.3703C66.9929 21.6756 70.2079 23.3176 72.5006 25.9553C74.7935 28.5933 75.986 32.0228 75.8272 35.5273C75.6683 39.0317 74.1705 42.3373 71.6489 44.7536C69.1276 47.1697 65.7778 48.5098 62.3 48.496H62.296L51.7317 48.496L51.7265 48.4961C50.3768 48.5031 49.0858 49.0461 48.1335 50.005C47.1814 50.9637 46.6447 52.2605 46.6378 53.6133V53.6184V56.9424Z" stroke="#232822" stroke-width="2"/>
</g>
<defs>
<linearGradient id="paint0_linear" x1="13" y1="5.18628" x2="107.131" y2="14.923" gradientUnits="userSpaceOnUse">
<stop stop-color="#FF9900"/>
<stop offset="1" stop-color="#DD2C00"/>
</linearGradient>
<clipPath id="clip0">
<rect width="110" height="110" fill="white"/>
</clipPath>
</defs>
</svg>
