<svg width="110" height="110" viewBox="0 0 110 110" fill="none" xmlns="http://www.w3.org/2000/svg">
<path d="M47.3447 26.0323H62.655" stroke="#232822" stroke-width="2" stroke-miterlimit="10"/>
<path d="M54.9998 25.6104V44.3671" stroke="#232822" stroke-width="2" stroke-miterlimit="10"/>
<path d="M23.0898 60.3337H35.6686" stroke="#232822" stroke-width="2" stroke-miterlimit="10"/>
<path d="M41.2722 53.9683V44.8243H68.7275V53.9683" stroke="#232822" stroke-width="2" stroke-miterlimit="10"/>
<path d="M80.6147 59.9117V78.6685" stroke="#232822" stroke-width="2" stroke-miterlimit="10"/>
<path d="M74.3193 60.3337H86.9098" stroke="#232822" stroke-width="2" stroke-miterlimit="10"/>
<path fill-rule="evenodd" clip-rule="evenodd" d="M61.8894 19.5343H62.8894H73.8738H74.8738V20.5343V31.5187V32.5187H73.8738H62.8894H61.8894V31.5187V20.5343V19.5343ZM63.8894 21.5343V30.5187H72.8738V21.5343H63.8894ZM99 66.8319H98H87.0156H86.0156V65.8319V54.8475V53.8475H87.0156H98H99V54.8475V65.8319V66.8319ZM97 64.8319V55.8475H88.0156V64.8319H97ZM13 60.3339C13 57.8561 15.0086 55.8475 17.4864 55.8475C19.9641 55.8475 21.9727 57.8561 21.9727 60.3339C21.9727 62.8116 19.9641 64.8203 17.4864 64.8203C15.0086 64.8203 13 62.8116 13 60.3339ZM17.4864 53.8475C13.904 53.8475 11 56.7516 11 60.3339C11 63.9162 13.904 66.8203 17.4864 66.8203C21.0687 66.8203 23.9727 63.9162 23.9727 60.3339C23.9727 56.7516 21.0687 53.8475 17.4864 53.8475Z" fill="url(#paint0_linear)"/>
<path d="M29.3853 59.9117V78.6685" stroke="#232822" stroke-width="2" stroke-miterlimit="10"/>
<path fill-rule="evenodd" clip-rule="evenodd" d="M41.6241 31.5187C44.6541 31.5187 47.1104 29.0624 47.1104 26.0324C47.1104 23.0023 44.6541 20.546 41.6241 20.546C38.594 20.546 36.1377 23.0023 36.1377 26.0324C36.1377 29.0624 38.594 31.5187 41.6241 31.5187ZM68.7276 65.8203C71.7576 65.8203 74.2139 63.3639 74.2139 60.3339C74.2139 57.3039 71.7576 54.8475 68.7276 54.8475C65.6975 54.8475 63.2412 57.3039 63.2412 60.3339C63.2412 63.3639 65.6975 65.8203 68.7276 65.8203ZM86.1011 83.8151C86.1011 86.8451 83.6448 89.3015 80.6148 89.3015C77.5847 89.3015 75.1284 86.8451 75.1284 83.8151C75.1284 80.7851 77.5847 78.3287 80.6148 78.3287C83.6448 78.3287 86.1011 80.7851 86.1011 83.8151ZM46.7703 54.8475H35.7859V65.832H46.7703V54.8475ZM23.8987 78.4811H34.8831V89.4655H23.8987V78.4811Z" fill="url(#paint1_linear)"/>
<path d="M35.7859 54.8475V53.8475H34.7859V54.8475H35.7859ZM46.7703 54.8475H47.7703V53.8475H46.7703V54.8475ZM35.7859 65.832H34.7859V66.832H35.7859V65.832ZM46.7703 65.832V66.832H47.7703V65.832H46.7703ZM34.8831 78.4811H35.8831V77.4811H34.8831V78.4811ZM23.8987 78.4811V77.4811H22.8987V78.4811H23.8987ZM34.8831 89.4655V90.4655H35.8831V89.4655H34.8831ZM23.8987 89.4655H22.8987V90.4655H23.8987V89.4655ZM46.1104 26.0324C46.1104 28.5101 44.1018 30.5187 41.6241 30.5187V32.5187C45.2064 32.5187 48.1104 29.6147 48.1104 26.0324H46.1104ZM41.6241 21.546C44.1018 21.546 46.1104 23.5546 46.1104 26.0324H48.1104C48.1104 22.4501 45.2064 19.546 41.6241 19.546V21.546ZM37.1377 26.0324C37.1377 23.5546 39.1463 21.546 41.6241 21.546V19.546C38.0417 19.546 35.1377 22.4501 35.1377 26.0324H37.1377ZM41.6241 30.5187C39.1463 30.5187 37.1377 28.5101 37.1377 26.0324H35.1377C35.1377 29.6147 38.0417 32.5187 41.6241 32.5187V30.5187ZM73.2139 60.3339C73.2139 62.8116 71.2053 64.8203 68.7276 64.8203V66.8203C72.3099 66.8203 75.2139 63.9162 75.2139 60.3339H73.2139ZM68.7276 55.8475C71.2053 55.8475 73.2139 57.8561 73.2139 60.3339H75.2139C75.2139 56.7516 72.3099 53.8475 68.7276 53.8475V55.8475ZM64.2412 60.3339C64.2412 57.8561 66.2498 55.8475 68.7276 55.8475V53.8475C65.1453 53.8475 62.2412 56.7516 62.2412 60.3339H64.2412ZM68.7276 64.8203C66.2498 64.8203 64.2412 62.8116 64.2412 60.3339H62.2412C62.2412 63.9162 65.1453 66.8203 68.7276 66.8203V64.8203ZM80.6148 90.3015C84.1971 90.3015 87.1011 87.3974 87.1011 83.8151H85.1011C85.1011 86.2928 83.0925 88.3015 80.6148 88.3015V90.3015ZM74.1284 83.8151C74.1284 87.3974 77.0325 90.3015 80.6148 90.3015V88.3015C78.137 88.3015 76.1284 86.2928 76.1284 83.8151H74.1284ZM80.6148 77.3287C77.0325 77.3287 74.1284 80.2328 74.1284 83.8151H76.1284C76.1284 81.3373 78.137 79.3287 80.6148 79.3287V77.3287ZM87.1011 83.8151C87.1011 80.2328 84.1971 77.3287 80.6148 77.3287V79.3287C83.0925 79.3287 85.1011 81.3373 85.1011 83.8151H87.1011ZM35.7859 55.8475H46.7703V53.8475H35.7859V55.8475ZM36.7859 65.832V54.8475H34.7859V65.832H36.7859ZM46.7703 64.832H35.7859V66.832H46.7703V64.832ZM45.7703 54.8475V65.832H47.7703V54.8475H45.7703ZM34.8831 77.4811H23.8987V79.4811H34.8831V77.4811ZM35.8831 89.4655V78.4811H33.8831V89.4655H35.8831ZM23.8987 90.4655H34.8831V88.4655H23.8987V90.4655ZM22.8987 78.4811V89.4655H24.8987V78.4811H22.8987Z" fill="url(#paint2_linear)"/>
<defs>
<linearGradient id="paint0_linear" x1="11" y1="19.5343" x2="104.939" y2="42.0137" gradientUnits="userSpaceOnUse">
<stop stop-color="#FF9900"/>
<stop offset="1" stop-color="#DD2C00"/>
</linearGradient>
<linearGradient id="paint1_linear" x1="23.8987" y1="20.546" x2="93.168" y2="28.5869" gradientUnits="userSpaceOnUse">
<stop stop-color="#FF9900"/>
<stop offset="1" stop-color="#DD2C00"/>
</linearGradient>
<linearGradient id="paint2_linear" x1="23.8987" y1="20.546" x2="93.168" y2="28.5869" gradientUnits="userSpaceOnUse">
<stop stop-color="#FF9900"/>
<stop offset="1" stop-color="#DD2C00"/>
</linearGradient>
</defs>
</svg>
