<svg width="110" height="110" viewBox="0 0 110 110" fill="none" xmlns="http://www.w3.org/2000/svg">
<g clip-path="url(#clip0)">
<path d="M25.6667 83.6829L22.8691 74.1464M22.8691 74.1464L32.381 71.3415M22.8691 74.1464C20.0715 72.2764 14.1408 66.9658 12.7977 60.6829C11.5985 55.0732 12.6166 50.0621 18.393 39.9269M18.393 39.9269C22.7044 32.3622 17.6469 27.3984 12.7977 27.5854C13.9168 27.5854 16.7144 26.8001 18.9525 23.6586C21.1906 20.5171 19.8851 17.1139 18.9525 15.8049C20.0715 17.1139 22.981 19.7318 25.6667 19.7318C28.3525 19.7318 31.262 17.1139 32.381 15.8049C31.635 17.6749 30.3669 21.8635 31.262 23.6586C32.381 25.9025 34.0597 27.5854 38.5358 27.5854C35.1787 28.7074 33.109 29.3609 31.8216 31.5123C30.1431 34.3171 32.008 37.309 32.381 39.3659C29.5835 35.4391 24.5478 30.3903 18.393 39.9269Z" stroke="url(#paint0_linear)" stroke-width="2" stroke-linejoin="round"/>
<ellipse cx="25.6666" cy="27.5853" rx="2.2381" ry="2.2439" fill="#232822"/>
<g clip-path="url(#clip1)">
<path d="M40.7229 15.9446L50.3593 18.2838M50.3593 18.2838L48.0261 27.9451M50.3593 18.2838C53.3733 16.7897 60.9259 14.2955 67.0245 16.2708C72.4696 18.0344 76.2891 21.424 82.1556 31.507M82.1556 31.507C86.5341 39.0328 93.3505 37.1235 95.6136 32.8195C95.0541 33.7912 94.3336 36.613 95.9281 40.127C97.5226 43.641 101.115 44.2091 102.712 44.0538C101.022 44.3709 97.3058 45.5882 95.9629 47.9202C94.62 50.2522 95.4266 54.0873 95.9977 55.7134C94.7555 54.1307 91.7715 50.9353 89.7733 50.815C87.2756 50.6646 84.9826 51.2807 82.7446 55.1673C83.454 51.6913 83.9243 49.5675 82.7097 47.374C81.1261 44.5142 77.6094 44.6375 75.6461 43.9329C80.4368 43.4673 87.3157 41.6194 82.1556 31.507Z" stroke="#232822" stroke-width="2" stroke-linejoin="round"/>
<ellipse rx="2.24245" ry="2.23955" transform="matrix(-0.499029 0.866585 -0.865463 -0.500972 89.179 43.9932)" fill="url(#paint1_linear)"/>
</g>
<g clip-path="url(#clip2)">
<path d="M93.8508 62.8286L86.862 69.8797M86.862 69.8797L79.8292 62.8728M86.862 69.8797C86.5748 73.2384 84.789 81.0072 79.9438 85.2131C75.6178 88.9684 70.7471 90.4873 59.1058 90.293M59.1058 90.293C50.417 90.1479 48.5137 96.9824 51.0126 101.153C50.4736 100.17 48.4398 98.0898 44.6159 97.6363C40.792 97.1827 38.4459 99.9688 37.7509 101.419C38.3561 99.805 39.2432 95.9878 37.9498 93.6279C36.6563 91.268 32.9667 89.9724 31.2836 89.6195C33.2774 89.3744 37.5495 88.4715 38.6876 86.8204C40.1101 84.7565 40.7727 82.471 38.6169 78.538C41.2145 80.9474 42.7826 82.4512 45.2831 82.5463C48.5433 82.6703 50.2604 79.5908 51.8787 78.2724C49.7935 82.6217 47.8055 89.4779 59.1058 90.293Z" stroke="url(#paint2_linear)" stroke-width="2" stroke-linejoin="round"/>
<ellipse rx="2.24256" ry="2.23944" transform="matrix(-0.480648 -0.876914 0.87586 -0.482565 44.8147 89.8456)" fill="#232822"/>
</g>
</g>
<defs>
<linearGradient id="paint0_linear" x1="12.3525" y1="15.8049" x2="41.8309" y2="17.2674" gradientUnits="userSpaceOnUse">
<stop stop-color="#FF9900"/>
<stop offset="1" stop-color="#DD2C00"/>
</linearGradient>
<linearGradient id="paint1_linear" x1="0" y1="0" x2="4.97916" y2="0.64123" gradientUnits="userSpaceOnUse">
<stop stop-color="#FF9900"/>
<stop offset="1" stop-color="#DD2C00"/>
</linearGradient>
<linearGradient id="paint2_linear" x1="40.9294" y1="107.218" x2="27.9635" y2="80.635" gradientUnits="userSpaceOnUse">
<stop stop-color="#FF9900"/>
<stop offset="1" stop-color="#DD2C00"/>
</linearGradient>
<clipPath id="clip0">
<rect width="94" height="92" fill="white" transform="translate(10 13)"/>
</clipPath>
<clipPath id="clip1">
<rect width="94.183" height="91.8215" fill="white" transform="matrix(-0.499029 0.866585 -0.865463 -0.500972 109.611 37.683)"/>
</clipPath>
<clipPath id="clip2">
<rect width="94.1874" height="91.8172" fill="white" transform="matrix(-0.480648 -0.876914 0.87586 -0.482565 39.6106 110.636)"/>
</clipPath>
</defs>
</svg>
