<svg width="110" height="110" viewBox="0 0 110 110" fill="none" xmlns="http://www.w3.org/2000/svg">
<g clip-path="url(#clip0)">
<path fill-rule="evenodd" clip-rule="evenodd" d="M47.8638 4.21249C52.9035 4.02346 57.9293 4.85848 62.6413 6.66761C67.3532 8.47672 71.6545 11.2228 75.2889 14.7416C75.7124 15.1517 76.1259 15.5713 76.5291 16H73.7121C70.3103 12.7536 66.3043 10.2164 61.9244 8.53472C57.4651 6.82259 52.7092 6.03237 47.9404 6.21102C40.7281 6.50552 33.7772 9.01524 28.0213 13.4041C23.9304 16.5235 20.5823 20.4861 18.1841 25H15.936C18.4933 19.8437 22.2052 15.3239 26.8086 11.8137C32.8903 7.17638 40.2365 4.52357 47.8605 4.21262L47.8638 4.21249ZM12.3574 47C12.6214 48.9072 13.0315 50.7993 13.588 52.6594C15.7872 60.0102 20.1675 66.5086 26.142 71.2816C29.1045 73.7042 31.4885 76.7673 33.1169 80.2443C34.7462 83.7231 35.5773 87.5267 35.5484 91.3734L35.5484 91.3809V110.002H37.5484V91.3846C37.579 87.2414 36.6835 83.1441 34.9281 79.396C33.1722 75.6468 30.6006 72.3429 27.4034 69.7295L27.4035 69.7295L27.3946 69.7224C21.7373 65.2042 17.5876 59.0502 15.5041 52.0861C15.0037 50.4136 14.6282 48.7136 14.3776 47H12.3574ZM93.2647 56H95.6543L97.7378 59.1861L97.7427 59.1935L97.7474 59.201C98.0951 59.754 98.2848 60.3919 98.2961 61.0452L98.2963 61.0554L98.2963 61.0656C98.2938 61.8609 98.0044 62.6293 97.4802 63.2273C96.9559 63.8254 96.2323 64.2126 95.4434 64.3146L90.2983 64.9795L90.2957 64.9799C89.9091 65.0326 89.5539 65.2276 89.2993 65.5294C89.0439 65.8321 88.9081 66.2205 88.9198 66.6198L88.9202 66.6344V66.6489V82.7402C88.9202 84.025 88.4134 85.2586 87.5091 86.1692C86.6046 87.08 85.3763 87.5929 84.0941 87.5929H78.7555V110H76.7555V87.5929L64.1593 87.5929L64.157 87.5929C62.0116 87.6 59.8864 87.1776 57.9049 86.3505C55.9227 85.5231 54.1241 84.3074 52.6135 82.7743L54.0381 81.3706C55.3627 82.7148 56.939 83.7801 58.6753 84.5048C60.4115 85.2295 62.2733 85.5993 64.1524 85.5929L64.1558 85.5929L77.7555 85.5929H84.0941C84.8414 85.5929 85.5595 85.294 86.09 84.7598C86.6208 84.2254 86.9202 83.499 86.9202 82.7402V66.6623C86.8983 65.7782 87.2003 64.9157 87.7707 64.2397L88.535 64.8845L87.7707 64.2397C88.3446 63.5595 89.1497 63.1162 90.0314 62.9974L90.0367 62.9967L95.187 62.3311C95.4908 62.2918 95.7715 62.1425 95.9762 61.909C96.1788 61.6778 96.2929 61.3799 96.2962 61.0696C96.2894 60.7867 96.2072 60.5114 96.0586 60.2725L93.2647 56Z" fill="url(#paint0_linear)"/>
<path d="M75 21H95.8737C97.048 21 98 21.952 98 23.1263V48.8737C98 50.048 97.048 51 95.8737 51H75C66.7157 51 60 44.2843 60 36C60 27.7157 66.7157 21 75 21Z" stroke="#232822" stroke-width="2"/>
<path d="M61 30H10.9259C9.48148 34 9 38 9 42H61" stroke="#232822" stroke-width="2"/>
</g>
<defs>
<linearGradient id="paint0_linear" x1="12.3574" y1="4.18628" x2="108.303" y2="14.2084" gradientUnits="userSpaceOnUse">
<stop stop-color="#FF9900"/>
<stop offset="1" stop-color="#DD2C00"/>
</linearGradient>
<clipPath id="clip0">
<rect width="110" height="110" fill="white"/>
</clipPath>
</defs>
</svg>
